<svg width="257" height="502" viewBox="0 0 257 502" fill="none" xmlns="http://www.w3.org/2000/svg">
<path d="M73.4159 137C33.4215 137 1 147.261 1 159.918C1 172.576 33.4215 182.837 73.4159 182.837C95.8298 182.837 114 178.493 114 173.135C114 167.777 95.8298 163.433 73.4159 163.433C33.4215 163.433 1 173.694 1 186.352C1 199.009 33.4215 209.271 73.4159 209.271C95.8298 209.271 114 204.927 114 199.569C114 194.21 95.8298 189.867 73.4159 189.867C33.4215 189.867 1 200.191 1 212.926C1 225.661 33.4215 235.985 73.4159 235.985C95.8298 235.985 114 231.641 114 226.283C114 220.925 95.8298 216.582 73.4159 216.582C33.4215 216.582 1 226.842 1 239.5C1 252.158 33.4215 262.418 73.4159 262.418C95.8298 262.418 114 258.075 114 252.717C114 247.359 95.8298 243.015 73.4159 243.015C33.4215 243.015 1 253.276 1 265.934C1 278.591 33.4215 288.852 73.4159 288.852C95.8298 288.852 114 284.508 114 279.151C114 273.792 95.8298 269.449 73.4159 269.449C33.4215 269.449 1 279.71 1 292.367C1 305.024 33.4215 315.285 73.4159 315.285C95.8298 315.285 114 310.942 114 305.583C114 300.226 95.8298 295.882 73.4159 295.882C33.4215 295.882 1 306.206 1 318.941C1 331.676 33.4215 342 73.4159 342M73.4159 296C33.4215 296 1 306.261 1 318.918C1 331.576 33.4215 341.837 73.4159 341.837C95.8298 341.837 114 337.493 114 332.135C114 326.777 95.8298 322.433 73.4159 322.433C33.4215 322.433 1 332.694 1 345.352C1 358.009 33.4215 368.271 73.4159 368.271C95.8298 368.271 114 363.927 114 358.569C114 353.211 95.8298 348.867 73.4159 348.867C33.4215 348.867 1 359.191 1 371.926C1 384.661 33.4215 394.985 73.4159 394.985C95.8298 394.985 114 390.641 114 385.283C114 379.925 95.8298 375.582 73.4159 375.582C33.4215 375.582 1 385.842 1 398.5C1 411.158 33.4215 421.418 73.4159 421.418C95.8298 421.418 114 417.075 114 411.717C114 406.359 95.8298 402.015 73.4159 402.015C33.4215 402.015 1 412.276 1 424.934C1 437.591 33.4215 447.852 73.4159 447.852C95.8298 447.852 114 443.508 114 438.151C114 432.792 95.8298 428.449 73.4159 428.449C33.4215 428.449 1 438.71 1 451.367C1 464.024 33.4215 474.285 73.4159 474.285C95.8298 474.285 114 469.942 114 464.583C114 459.226 95.8298 454.882 73.4159 454.882C33.4215 454.882 1 465.206 1 477.941C1 490.676 33.4215 501 73.4159 501M215.775 1C176.135 1 144 11.2609 144 23.9184C144 36.5758 176.135 46.8368 215.775 46.8368C237.991 46.8368 256 42.4932 256 37.1351C256 31.777 237.991 27.4335 215.775 27.4335C176.135 27.4335 144 37.6944 144 50.3518C144 63.0094 176.135 73.2706 215.775 73.2706C237.991 73.2706 256 68.9268 256 63.5686C256 58.2105 237.991 53.8669 215.775 53.8669C176.135 53.8669 144 64.1908 144 76.9259C144 89.6609 176.135 99.9851 215.775 99.9851C237.991 99.9851 256 95.6414 256 90.2831C256 84.9249 237.991 80.582 215.775 80.582C176.135 80.582 144 90.8425 144 103.5C144 116.158 176.135 126.418 215.775 126.418C237.991 126.418 256 122.075 256 116.717C256 111.359 237.991 107.015 215.775 107.015C176.135 107.015 144 117.276 144 129.934C144 142.591 176.135 152.852 215.775 152.852C237.991 152.852 256 148.508 256 143.151C256 137.792 237.991 133.449 215.775 133.449C176.135 133.449 144 143.71 144 156.367C144 169.024 176.135 179.285 215.775 179.285C237.991 179.285 256 174.942 256 169.583C256 164.226 237.991 159.882 215.775 159.882C176.135 159.882 144 170.206 144 182.941C144 195.676 176.135 206 215.775 206M215.775 160C176.135 160 144 170.261 144 182.918C144 195.576 176.135 205.837 215.775 205.837C237.991 205.837 256 201.493 256 196.135C256 190.777 237.991 186.433 215.775 186.433C176.135 186.433 144 196.694 144 209.352C144 222.009 176.135 232.271 215.775 232.271C237.991 232.271 256 227.927 256 222.569C256 217.211 237.991 212.867 215.775 212.867C176.135 212.867 144 223.191 144 235.926C144 248.661 176.135 258.985 215.775 258.985C237.991 258.985 256 254.641 256 249.283C256 243.925 237.991 239.582 215.775 239.582C176.135 239.582 144 249.842 144 262.5C144 275.158 176.135 285.418 215.775 285.418C237.991 285.418 256 281.075 256 275.717C256 270.359 237.991 266.015 215.775 266.015C176.135 266.015 144 276.276 144 288.934C144 301.591 176.135 311.852 215.775 311.852C237.991 311.852 256 307.508 256 302.151C256 296.792 237.991 292.449 215.775 292.449C176.135 292.449 144 302.71 144 315.367C144 328.024 176.135 338.285 215.775 338.285C237.991 338.285 256 333.942 256 328.583C256 323.226 237.991 318.882 215.775 318.882C176.135 318.882 144 329.206 144 341.941C144 354.676 176.135 365 215.775 365" stroke="#A1A6B4" stroke-linecap="round"/>
</svg>
